<?xml version="1.0" encoding="utf-8"?>
<!-- Generator: Adobe Illustrator 24.0.1, SVG Export Plug-In . SVG Version: 6.00 Build 0)  -->
<svg version="1.1" id="Layer_1" xmlns="http://www.w3.org/2000/svg" xmlns:xlink="http://www.w3.org/1999/xlink" x="0px" y="0px"
	 viewBox="0 0 180 180" style="enable-background:new 0 0 180 180;" xml:space="preserve">
<style type="text/css">
	.st0{fill:#FAA21B;}
</style>
<title>insperation Sculpt S - 2 mit Verknüpfungen Schnürlischrift</title>
<path class="st0" d="M80.5,171.8c-10.7-1.3-18.6-4.9-23.6-10.6c-5-5.6-7.3-13.2-6.1-20.7c1-8,5.3-14.1,13.1-18.3
	c8.2-4.3,17.1-7,26.3-7.7c-1.3-2.9-6.1-12.4-14.5-28.6c-6,0.6-12,0.5-18-0.2c-12.6-1.5-22-6-28.3-13.4c-6.3-7.4-8.8-16.7-7.4-27.9
	c0.8-5.5,2.1-10.9,4-16.1l0.8-2.6c5.1,0.6,10.1,2.1,14.7,4.5c-3.2,5.4-5.3,11.4-6,17.7c-0.9,5.8,1,11.8,5.1,16
	c4.3,4.5,10.1,7.2,16.3,7.8c4,0.4,8.1,0.3,12.1-0.1c-5.3-12.5-7.4-23.1-6.3-31.7c1-10.7,7.4-20.1,16.9-24.9
	c9.8-5.4,21.2-7.5,32.3-5.9c11.6,1.4,20.2,5.2,25.9,11.3c5.7,6.1,8.1,13.1,7.1,20.9c-1,7.9-4.8,14.7-11.4,20.7
	c-6.4,5.8-13.6,10.4-21.5,13.9c9.1,15.1,14.6,30,16.6,44.6c12.5,3.2,24.6,7.9,36.1,13.8c-3,7.2-5.6,12.4-7.8,15.4
	c-3.8-3.6-8-6.7-12.5-9.3c-4.8-3-9.9-5.2-15.3-6.7l0,0.2c-1.5,11.8-7.2,21.4-17.3,28.8C101.6,170,91.2,173.1,80.5,171.8z
	 M77.1,154.5c4,0.5,7.7-1,11.2-4.4c3.3-3,5.4-7,6.1-11.3c0.5-3.5,0.5-7.1-0.1-10.6c-6.2-0.7-12.6,0.3-18.3,2.8
	c-6.2,2.6-9.6,6.1-10.2,10.6c-0.4,3,0.4,6.1,2.4,8.5C70.2,152.5,73.2,154,77.1,154.5L77.1,154.5z M121.7,53.1c5.2-4.3,8-8.6,8.5-13
	c0.7-4-0.8-8-3.8-10.6c-3.1-2.7-7.2-4.4-12.5-5.1s-9.7-0.1-13.3,1.8c-3.4,1.5-5.7,4.7-6.1,8.4c-0.3,2.6,0,5.2,0.9,7.6
	c0.9,2.7,1.6,4.8,2.2,6.4c0.6,1.7,1.3,3.3,2.1,4.8c0.9,1.6,1.6,2.9,2.1,3.9c0.6,1,1.5,2.7,2.9,5.1C110.9,60.5,116.7,57.3,121.7,53.1
	L121.7,53.1z"/>
</svg>
